HIERARCHY
ROOT Root
{
	OFFSET 0.00000 0.00000 0.00000
	CHANNELS 6 Xposition Yposition Zposition Zrotation Xrotation Yrotation
	JOINT Hip
	{
		OFFSET 0 0 0	
		CHANNELS 3 Zrotation Xrotation Yrotation
		JOINT Tummy
		{
			OFFSET 0 0.04 0	
			CHANNELS 3 Zrotation Xrotation Yrotation
			JOINT ChestBottom
			{
				OFFSET 0 0.194 0	
				CHANNELS 3 Zrotation Xrotation Yrotation
				JOINT ChestTop
				{
					OFFSET 0 0.166 0	
					CHANNELS 3 Zrotation Xrotation Yrotation
					JOINT LeftCollar
					{
						OFFSET 0 0.1 0	
						CHANNELS 3 Zrotation Xrotation Yrotation
						JOINT LeftUpperArm
						{
							OFFSET 0.156 -0.02 0.03	
							CHANNELS 3 Zrotation Xrotation Yrotation
							JOINT LeftForeArm
							{
								OFFSET 0.035 -0.27 -0.01	
								CHANNELS 3 Zrotation Xrotation Yrotation
								JOINT LeftHand
								{
									OFFSET 0.01 -0.27 0.01	
									CHANNELS 3 Zrotation Xrotation Yrotation
									End Site
									{
										OFFSET 0 -0.15 0
									}
								}
							}
						}
					}
					JOINT RightCollar
					{
						OFFSET 0 0.1 0	
						CHANNELS 3 Zrotation Xrotation Yrotation
						JOINT RightUpperArm
						{
							OFFSET -0.156 -0.02 0.03	
							CHANNELS 3 Zrotation Xrotation Yrotation
							JOINT RightForeArm
							{
								OFFSET -0.035 -0.27 -0.01	
								CHANNELS 3 Zrotation Xrotation Yrotation
								JOINT RightHand
								{
									OFFSET -0.01 -0.27 0.01	
									CHANNELS 3 Zrotation Xrotation Yrotation
									End Site
									{
										OFFSET 0 -0.15 0
									}
								}
							}
						}
					}
					JOINT Neck
					{
						OFFSET 0 0.1 0	
						CHANNELS 3 Zrotation Xrotation Yrotation
						JOINT Head
						{
							OFFSET 0 0.127 0.03	
							CHANNELS 3 Zrotation Xrotation Yrotation
							End Site
							{
								OFFSET 0 0.127 0.03
							}
						}
					}
				}
			}
		}
	}
	JOINT LeftHip
	{
		OFFSET 0 0 0	
		CHANNELS 3 Zrotation Xrotation Yrotation
		JOINT LeftThigh
		{
			OFFSET 0.088 -0.06 0	
			CHANNELS 3 Zrotation Xrotation Yrotation
			JOINT LeftLowerLeg
			{
				OFFSET 0 -0.39 0.02	
				CHANNELS 3 Zrotation Xrotation Yrotation
				JOINT LeftFootTop
				{
					OFFSET 0 -0.43 -0.02	
					CHANNELS 3 Zrotation Xrotation Yrotation
					JOINT LeftFootFront
					{
						OFFSET 0 -0.07 0.085	
						CHANNELS 3 Zrotation Xrotation Yrotation
						End Site
						{
							OFFSET 0 -0.005 0.09
						}
					}
				}
				JOINT LeftHeel
				{
					OFFSET 0 -0.43 -0.02	
					CHANNELS 3 Zrotation Xrotation Yrotation
					End Site
					{
						OFFSET 0 -0.075 -0.05
					}
				}
			}
		}
	}
	JOINT RightHip
	{
		OFFSET 0 0 0	
		CHANNELS 3 Zrotation Xrotation Yrotation
		JOINT RightThigh
		{
			OFFSET -0.088 -0.06 0	
			CHANNELS 3 Zrotation Xrotation Yrotation
			JOINT RightLowerLeg
			{
				OFFSET 0 -0.39 0.02	
				CHANNELS 3 Zrotation Xrotation Yrotation
				JOINT RightFootTop
				{
					OFFSET 0 -0.43 -0.02	
					CHANNELS 3 Zrotation Xrotation Yrotation
					JOINT RightFootFront
					{
						OFFSET 0 -0.07 0.085	
						CHANNELS 3 Zrotation Xrotation Yrotation
						End Site
						{
							OFFSET 0 -0.005 0.09
						}
					}
				}
				JOINT RightHeel
				{
					OFFSET 0 -0.43 -0.02	
					CHANNELS 3 Zrotation Xrotation Yrotation
					End Site
					{
						OFFSET 0 -0.075 -0.05
					}
				}
			}
		}
	}
}
MOTION
Frames: 12
Frame Time: 0.05
0 0.955 0 -0 0 -0 -0 0 -0 -0 0 -0 6.9519 32.918 -24.82 -0 0 -0 -0 0 -0 46.821 -86.959 35.347 -175.78 -73.321 159.28 -0 0 -0 -0 0 -0 -36.355 -66.53 10.497 104.78 -38.923 65.221 -0 0 -0 -7.0928 -34.886 -26.135 -7.0928 -34.886 -26.135 -0 0 -0 -0 0 -0 -0 0 -0 -0 0 -0 -0 0 -0 -0 0 -0 -0 0 -0 -0 0 -0 -0 0 -0 -0 0 -0 -0 0 -0 -0 0 -0 
0 0.955 0 -0 0 -0 -0 0 -0 -0 0 -0 7.095 33.042 -24.916 -0 0 -0 -0 0 -0 48.236 -87.098 36.679 -176 -73.275 158.78 -0 0 -0 -0 0 -0 -36.805 -66.652 10.097 104.88 -38.936 65.415 -0 0 -0 -6.7738 -34.769 -25.79 -6.7738 -34.769 -25.79 -0 0 -0 -0 0 -0 -0 0 -0 -0 0 -0 -0 0 -0 -0 0 -0 -0 0 -0 -0 0 -0 -0 0 -0 -0 0 -0 -0 0 -0 -0 0 -0 
0 0.955 0 -0 0 -0 -0 0 -0 -0 0 -0 7.1175 32.935 -25.118 -0 0 -0 -0 0 -0 49.116 -87.096 37.713 -174.94 -73.14 159.37 -0 0 -0 -0 0 -0 -36.281 -66.726 10.905 104.74 -39.282 65.874 -0 0 -0 -5.9755 -34.124 -24.374 -5.9755 -34.124 -24.374 -0 0 -0 -0 0 -0 -0 0 -0 -0 0 -0 -0 0 -0 -0 0 -0 -0 0 -0 -0 0 -0 -0 0 -0 -0 0 -0 -0 0 -0 -0 0 -0 
0 0.955 0 -0 0 -0 -0 0 -0 -0 0 -0 6.8748 32.475 -25.111 -0 0 -0 -0 0 -0 47.475 -86.995 36.249 -172.67 -72.622 161 -0 0 -0 -0 0 -0 -34.853 -66.554 12.118 103.67 -40.029 66.576 -0 0 -0 -4.2787 -32.983 -21.122 -4.2787 -32.983 -21.122 -0 0 -0 -0 0 -0 -0 0 -0 -0 0 -0 -0 0 -0 -0 0 -0 -0 0 -0 -0 0 -0 -0 0 -0 -0 0 -0 -0 0 -0 -0 0 -0 
0 0.955 0 -0 0 -0 -0 0 -0 -0 0 -0 6.1888 31.865 -24.703 -0 0 -0 -0 0 -0 49.979 -86.981 38.691 -169.77 -71.898 163.47 -0 0 -0 -0 0 -0 -32.944 -66.018 12.614 103.89 -42.903 72.073 -0 0 -0 -1.9634 -31.711 -16.777 -1.9634 -31.711 -16.777 -0 0 -0 -0 0 -0 -0 0 -0 -0 0 -0 -0 0 -0 -0 0 -0 -0 0 -0 -0 0 -0 -0 0 -0 -0 0 -0 -0 0 -0 -0 0 -0 
0 0.955 0 -0 0 -0 -0 0 -0 -0 0 -0 6.0384 31.394 -24.608 -0 0 -0 -0 0 -0 64.731 -86.679 54.948 -164.17 -70.36 168.46 -0 0 -0 -0 0 -0 -31.592 -65.381 11.38 105.34 -47.396 80.777 -0 0 -0 0.03676 -30.73 -12.475 0.03676 -30.73 -12.475 -0 0 -0 -0 0 -0 -0 0 -0 -0 0 -0 -0 0 -0 -0 0 -0 -0 0 -0 -0 0 -0 -0 0 -0 -0 0 -0 -0 0 -0 -0 0 -0 
0 0.955 0 -0 0 -0 -0 0 -0 -0 0 -0 5.3613 30.746 -24.228 -0 0 -0 -0 0 -0 70.348 -86.643 62.314 -157.88 -68.179 172.6 -0 0 -0 -0 0 -0 -29.474 -64.217 7.8079 105.64 -51.355 87.581 -0 0 -0 1.6245 -29.627 -8.9984 1.6245 -29.627 -8.9984 -0 0 -0 -0 0 -0 -0 0 -0 -0 0 -0 -0 0 -0 -0 0 -0 -0 0 -0 -0 0 -0 -0 0 -0 -0 0 -0 -0 0 -0 -0 0 -0 
0 0.955 0 -0 0 -0 -0 0 -0 -0 0 -0 4.4771 30.915 -24.06 -0 0 -0 -0 0 -0 88.554 -86.707 80.926 -153.19 -66.501 175.38 -0 0 -0 -0 0 -0 -26.379 -63.545 2.2292 103.75 -53.594 91.551 -0 0 -0 3.1302 -29.002 -6.2419 3.1302 -29.002 -6.2419 -0 0 -0 -0 0 -0 -0 0 -0 -0 0 -0 -0 0 -0 -0 0 -0 -0 0 -0 -0 0 -0 -0 0 -0 -0 0 -0 -0 0 -0 -0 0 -0 
0 0.955 0 -0 0 -0 -0 0 -0 -0 0 -0 3.9375 30.946 -24.332 -0 0 -0 -0 0 -0 102.73 -86.383 95.132 -149.93 -65.223 177.16 -0 0 -0 -0 0 -0 -22.419 -62.854 -1.1014 99.542 -55.16 91.642 -0 0 -0 4.4092 -28.498 -3.4784 4.4092 -28.498 -3.4784 -0 0 -0 -0 0 -0 -0 0 -0 -0 0 -0 -0 0 -0 -0 0 -0 -0 0 -0 -0 0 -0 -0 0 -0 -0 0 -0 -0 0 -0 -0 0 -0 
0 0.955 0 -0 0 -0 -0 0 -0 -0 0 -0 2.9668 30.963 -24.804 -0 0 -0 -0 0 -0 109.64 -85.518 102.14 -146.28 -63.537 179.3 -0 0 -0 -0 0 -0 -16.727 -62.725 0.026919 92.595 -55.576 83.541 -0 0 -0 6.2691 -27.896 0.11759 6.2691 -27.896 0.11759 -0 0 -0 -0 0 -0 -0 0 -0 -0 0 -0 -0 0 -0 -0 0 -0 -0 0 -0 -0 0 -0 -0 0 -0 -0 0 -0 -0 0 -0 -0 0 -0 
0 0.955 0 -0 0 -0 -0 0 -0 -0 0 -0 2.235 31.287 -25.321 -0 0 -0 -0 0 -0 117.4 -84.442 110.4 -142.76 -61.458 -177.94 -0 0 -0 -0 0 -0 -11.461 -64 3.5372 85.387 -54.646 73.383 -0 0 -0 8.32 -27.579 3.4305 8.32 -27.579 3.4305 -0 0 -0 -0 0 -0 -0 0 -0 -0 0 -0 -0 0 -0 -0 0 -0 -0 0 -0 -0 0 -0 -0 0 -0 -0 0 -0 -0 0 -0 -0 0 -0 
0 0.955 0 -0 0 -0 -0 0 -0 -0 0 -0 1.3317 31.084 -25.151 -0 0 -0 -0 0 -0 119.93 -84.096 113.6 -140.31 -59.267 -176.47 -0 0 -0 -0 0 -0 -7.5435 -65.436 7.8978 79.356 -52.44 63.04 -0 0 -0 9.822 -27.285 5.4467 9.822 -27.285 5.4467 -0 0 -0 -0 0 -0 -0 0 -0 -0 0 -0 -0 0 -0 -0 0 -0 -0 0 -0 -0 0 -0 -0 0 -0 -0 0 -0 -0 0 -0 -0 0 -0 
